<mxfile host="app.diagrams.net" agent="Mozilla/5.0 (Windows NT 10.0; Win64; x64) AppleWebKit/537.36 (KHTML, like Gecko) Chrome/128.0.0.0 YaBrowser/24.10.0.0 Safari/537.36" version="24.8.6">
  <diagram name="Диаграмма классов для игры Тетрис" id="kfvz6w6xAoVxWVqMSBBk">
    <mxGraphModel dx="1138" dy="634" grid="1" gridSize="10" guides="1" tooltips="1" connect="1" arrows="1" fold="1" page="1" pageScale="1" pageWidth="1169" pageHeight="1654" math="0" shadow="0">
      <root>
        <mxCell id="0" />
        <mxCell id="1" parent="0" />
        <mxCell id="4S76jrjOpWO9Tuhp8xzF-52" value="&#xa;    &#xa;        &#xa;        &#xa;        &#xa;        &#xa;    &#xa;    &#xa;        &#xa;        &#xa;        &#xa;        &#xa;    &#xa;    &#xa;        &#xa;        &#xa;    &#xa;    &#xa;        &#xa;        &#xa;        &#xa;    &#xa;    &#xa;        &#xa;    &#xa;    &#xa;        &#xa;    &#xa;    &#xa;        &#xa;        &#xa;    &#xa;    &#xa;        &#xa;        &#xa;        &#xa;        &#xa;    &#xa;    &#xa;        &#xa;        &#xa;    &#xa;    &#xa;        &#xa;    &#xa;    &#xa;        &#xa;        &#xa;    &#xa;    &#xa;        &#xa;        &#xa;    &#xa;    &#xa;        &#xa;        &#xa;    &#xa;    &#xa;        &#xa;    &#xa;    &#xa;    &#xa;    &#xa;    &#xa;    &#xa;    &#xa;" style="text;whiteSpace=wrap;html=1;" parent="1" vertex="1">
          <mxGeometry width="260" height="970" as="geometry" />
        </mxCell>
        <mxCell id="YDc8JTq9BG1FTdDbgutB-31" value="&lt;p style=&quot;margin:0px;margin-top:4px;text-align:center;&quot;&gt;&lt;b&gt;C Game&lt;/b&gt;&lt;/p&gt;&lt;hr size=&quot;1&quot; style=&quot;border-style:solid;&quot;&gt;&lt;p style=&quot;margin:0px;margin-left:4px;&quot;&gt;+&amp;nbsp;&lt;span style=&quot;background-color: initial;&quot;&gt;- score: int&lt;/span&gt;&lt;/p&gt;&amp;nbsp;+ level: int&lt;br&gt;&amp;nbsp;+ isRunning: boolean&lt;div&gt;&lt;br style=&quot;text-wrap: nowrap;&quot;&gt;&lt;/div&gt;&lt;hr size=&quot;1&quot; style=&quot;border-style:solid;&quot;&gt;&lt;p style=&quot;margin:0px;margin-left:4px;&quot;&gt;+ startGame(): void&lt;/p&gt;&lt;p style=&quot;margin:0px;margin-left:4px;&quot;&gt;+ endGame():&amp;nbsp;&lt;span style=&quot;background-color: initial;&quot;&gt;void&lt;/span&gt;&lt;/p&gt;&lt;p style=&quot;margin:0px;margin-left:4px;&quot;&gt;&lt;span style=&quot;background-color: initial;&quot;&gt;+ update():&amp;nbsp;&lt;/span&gt;&lt;span style=&quot;background-color: initial;&quot;&gt;void&lt;/span&gt;&lt;/p&gt;&lt;p style=&quot;margin:0px;margin-left:4px;&quot;&gt;&lt;span style=&quot;background-color: initial;&quot;&gt;+ draw() :&amp;nbsp;&lt;/span&gt;&lt;span style=&quot;background-color: initial;&quot;&gt;void&lt;/span&gt;&lt;/p&gt;" style="verticalAlign=top;align=left;overflow=fill;html=1;whiteSpace=wrap;" vertex="1" parent="1">
          <mxGeometry x="260" y="50" width="160" height="160" as="geometry" />
        </mxCell>
        <mxCell id="YDc8JTq9BG1FTdDbgutB-32" value="&lt;b&gt;C &lt;/b&gt;Score" style="swimlane;fontStyle=0;childLayout=stackLayout;horizontal=1;startSize=26;fillColor=none;horizontalStack=0;resizeParent=1;resizeParentMax=0;resizeLast=0;collapsible=1;marginBottom=0;whiteSpace=wrap;html=1;" vertex="1" parent="1">
          <mxGeometry x="470" y="50" width="140" height="78" as="geometry" />
        </mxCell>
        <mxCell id="YDc8JTq9BG1FTdDbgutB-33" value="+ name : String" style="text;strokeColor=none;fillColor=none;align=left;verticalAlign=top;spacingLeft=4;spacingRight=4;overflow=hidden;rotatable=0;points=[[0,0.5],[1,0.5]];portConstraint=eastwest;whiteSpace=wrap;html=1;" vertex="1" parent="YDc8JTq9BG1FTdDbgutB-32">
          <mxGeometry y="26" width="140" height="26" as="geometry" />
        </mxCell>
        <mxCell id="YDc8JTq9BG1FTdDbgutB-34" value="+ score : int" style="text;strokeColor=none;fillColor=none;align=left;verticalAlign=top;spacingLeft=4;spacingRight=4;overflow=hidden;rotatable=0;points=[[0,0.5],[1,0.5]];portConstraint=eastwest;whiteSpace=wrap;html=1;" vertex="1" parent="YDc8JTq9BG1FTdDbgutB-32">
          <mxGeometry y="52" width="140" height="26" as="geometry" />
        </mxCell>
        <mxCell id="YDc8JTq9BG1FTdDbgutB-36" value="C &lt;span style=&quot;font-weight: normal;&quot;&gt;ShapeFactory&lt;/span&gt;" style="swimlane;fontStyle=1;align=center;verticalAlign=top;childLayout=stackLayout;horizontal=1;startSize=26;horizontalStack=0;resizeParent=1;resizeParentMax=0;resizeLast=0;collapsible=1;marginBottom=0;whiteSpace=wrap;html=1;" vertex="1" parent="1">
          <mxGeometry x="70" y="240" width="160" height="60" as="geometry" />
        </mxCell>
        <mxCell id="YDc8JTq9BG1FTdDbgutB-38" value="" style="line;strokeWidth=1;fillColor=none;align=left;verticalAlign=middle;spacingTop=-1;spacingLeft=3;spacingRight=3;rotatable=0;labelPosition=right;points=[];portConstraint=eastwest;strokeColor=inherit;" vertex="1" parent="YDc8JTq9BG1FTdDbgutB-36">
          <mxGeometry y="26" width="160" height="8" as="geometry" />
        </mxCell>
        <mxCell id="YDc8JTq9BG1FTdDbgutB-39" value="+ createShape() : Shape" style="text;strokeColor=none;fillColor=none;align=left;verticalAlign=top;spacingLeft=4;spacingRight=4;overflow=hidden;rotatable=0;points=[[0,0.5],[1,0.5]];portConstraint=eastwest;whiteSpace=wrap;html=1;" vertex="1" parent="YDc8JTq9BG1FTdDbgutB-36">
          <mxGeometry y="34" width="160" height="26" as="geometry" />
        </mxCell>
        <mxCell id="YDc8JTq9BG1FTdDbgutB-40" value="C &lt;span style=&quot;font-weight: normal;&quot;&gt;Board&lt;/span&gt;" style="swimlane;fontStyle=1;align=center;verticalAlign=top;childLayout=stackLayout;horizontal=1;startSize=26;horizontalStack=0;resizeParent=1;resizeParentMax=0;resizeLast=0;collapsible=1;marginBottom=0;whiteSpace=wrap;html=1;" vertex="1" parent="1">
          <mxGeometry x="270" y="260" width="200" height="150" as="geometry" />
        </mxCell>
        <mxCell id="YDc8JTq9BG1FTdDbgutB-41" value="+ width : int&lt;div&gt;+ height : int&lt;/div&gt;&lt;div&gt;+ grid : Cell[][]&lt;/div&gt;" style="text;strokeColor=none;fillColor=none;align=left;verticalAlign=top;spacingLeft=4;spacingRight=4;overflow=hidden;rotatable=0;points=[[0,0.5],[1,0.5]];portConstraint=eastwest;whiteSpace=wrap;html=1;" vertex="1" parent="YDc8JTq9BG1FTdDbgutB-40">
          <mxGeometry y="26" width="200" height="54" as="geometry" />
        </mxCell>
        <mxCell id="YDc8JTq9BG1FTdDbgutB-42" value="" style="line;strokeWidth=1;fillColor=none;align=left;verticalAlign=middle;spacingTop=-1;spacingLeft=3;spacingRight=3;rotatable=0;labelPosition=right;points=[];portConstraint=eastwest;strokeColor=inherit;" vertex="1" parent="YDc8JTq9BG1FTdDbgutB-40">
          <mxGeometry y="80" width="200" height="8" as="geometry" />
        </mxCell>
        <mxCell id="YDc8JTq9BG1FTdDbgutB-43" value="+ addShape(shape : Shape) : void&lt;div&gt;+ isLineComplete(row : int) : booolean&lt;/div&gt;&lt;div&gt;+ clearLine(ro : int) : void&lt;/div&gt;" style="text;strokeColor=none;fillColor=none;align=left;verticalAlign=top;spacingLeft=4;spacingRight=4;overflow=hidden;rotatable=0;points=[[0,0.5],[1,0.5]];portConstraint=eastwest;whiteSpace=wrap;html=1;" vertex="1" parent="YDc8JTq9BG1FTdDbgutB-40">
          <mxGeometry y="88" width="200" height="62" as="geometry" />
        </mxCell>
        <mxCell id="YDc8JTq9BG1FTdDbgutB-44" value="C &lt;span style=&quot;font-weight: normal;&quot;&gt;SoundManager&lt;/span&gt;" style="swimlane;fontStyle=1;align=center;verticalAlign=top;childLayout=stackLayout;horizontal=1;startSize=26;horizontalStack=0;resizeParent=1;resizeParentMax=0;resizeLast=0;collapsible=1;marginBottom=0;whiteSpace=wrap;html=1;" vertex="1" parent="1">
          <mxGeometry x="540" y="242" width="190" height="94" as="geometry" />
        </mxCell>
        <mxCell id="YDc8JTq9BG1FTdDbgutB-45" value="+ sounds: HashMap&amp;lt;String, Sound&amp;gt;" style="text;strokeColor=none;fillColor=none;align=left;verticalAlign=top;spacingLeft=4;spacingRight=4;overflow=hidden;rotatable=0;points=[[0,0.5],[1,0.5]];portConstraint=eastwest;whiteSpace=wrap;html=1;" vertex="1" parent="YDc8JTq9BG1FTdDbgutB-44">
          <mxGeometry y="26" width="190" height="34" as="geometry" />
        </mxCell>
        <mxCell id="YDc8JTq9BG1FTdDbgutB-46" value="" style="line;strokeWidth=1;fillColor=none;align=left;verticalAlign=middle;spacingTop=-1;spacingLeft=3;spacingRight=3;rotatable=0;labelPosition=right;points=[];portConstraint=eastwest;strokeColor=inherit;" vertex="1" parent="YDc8JTq9BG1FTdDbgutB-44">
          <mxGeometry y="60" width="190" height="8" as="geometry" />
        </mxCell>
        <mxCell id="YDc8JTq9BG1FTdDbgutB-47" value="+ playSound(name:String) : void" style="text;strokeColor=none;fillColor=none;align=left;verticalAlign=top;spacingLeft=4;spacingRight=4;overflow=hidden;rotatable=0;points=[[0,0.5],[1,0.5]];portConstraint=eastwest;whiteSpace=wrap;html=1;" vertex="1" parent="YDc8JTq9BG1FTdDbgutB-44">
          <mxGeometry y="68" width="190" height="26" as="geometry" />
        </mxCell>
        <mxCell id="YDc8JTq9BG1FTdDbgutB-48" value="C &lt;span style=&quot;font-weight: normal;&quot;&gt;ScoreBoard&lt;/span&gt;" style="swimlane;fontStyle=1;align=center;verticalAlign=top;childLayout=stackLayout;horizontal=1;startSize=26;horizontalStack=0;resizeParent=1;resizeParentMax=0;resizeLast=0;collapsible=1;marginBottom=0;whiteSpace=wrap;html=1;" vertex="1" parent="1">
          <mxGeometry x="800" y="240" width="190" height="130" as="geometry" />
        </mxCell>
        <mxCell id="YDc8JTq9BG1FTdDbgutB-49" value="+ scores : List&amp;lt;Score&amp;gt;" style="text;strokeColor=none;fillColor=none;align=left;verticalAlign=top;spacingLeft=4;spacingRight=4;overflow=hidden;rotatable=0;points=[[0,0.5],[1,0.5]];portConstraint=eastwest;whiteSpace=wrap;html=1;" vertex="1" parent="YDc8JTq9BG1FTdDbgutB-48">
          <mxGeometry y="26" width="190" height="26" as="geometry" />
        </mxCell>
        <mxCell id="YDc8JTq9BG1FTdDbgutB-50" value="" style="line;strokeWidth=1;fillColor=none;align=left;verticalAlign=middle;spacingTop=-1;spacingLeft=3;spacingRight=3;rotatable=0;labelPosition=right;points=[];portConstraint=eastwest;strokeColor=inherit;" vertex="1" parent="YDc8JTq9BG1FTdDbgutB-48">
          <mxGeometry y="52" width="190" height="8" as="geometry" />
        </mxCell>
        <mxCell id="YDc8JTq9BG1FTdDbgutB-51" value="+ addScore(score : Score) : void&lt;div&gt;+ getHighScore() : int&lt;/div&gt;" style="text;strokeColor=none;fillColor=none;align=left;verticalAlign=top;spacingLeft=4;spacingRight=4;overflow=hidden;rotatable=0;points=[[0,0.5],[1,0.5]];portConstraint=eastwest;whiteSpace=wrap;html=1;" vertex="1" parent="YDc8JTq9BG1FTdDbgutB-48">
          <mxGeometry y="60" width="190" height="70" as="geometry" />
        </mxCell>
        <mxCell id="YDc8JTq9BG1FTdDbgutB-52" value="C &lt;span style=&quot;font-weight: normal;&quot;&gt;LineShape&lt;/span&gt;" style="swimlane;fontStyle=1;align=center;verticalAlign=top;childLayout=stackLayout;horizontal=1;startSize=26;horizontalStack=0;resizeParent=1;resizeParentMax=0;resizeLast=0;collapsible=1;marginBottom=0;whiteSpace=wrap;html=1;" vertex="1" parent="1">
          <mxGeometry x="1080" y="244" width="200" height="140" as="geometry" />
        </mxCell>
        <mxCell id="YDc8JTq9BG1FTdDbgutB-53" value="+ scores : List&amp;lt;Score&amp;gt;" style="text;strokeColor=none;fillColor=none;align=left;verticalAlign=top;spacingLeft=4;spacingRight=4;overflow=hidden;rotatable=0;points=[[0,0.5],[1,0.5]];portConstraint=eastwest;whiteSpace=wrap;html=1;" vertex="1" parent="YDc8JTq9BG1FTdDbgutB-52">
          <mxGeometry y="26" width="200" height="26" as="geometry" />
        </mxCell>
        <mxCell id="YDc8JTq9BG1FTdDbgutB-54" value="" style="line;strokeWidth=1;fillColor=none;align=left;verticalAlign=middle;spacingTop=-1;spacingLeft=3;spacingRight=3;rotatable=0;labelPosition=right;points=[];portConstraint=eastwest;strokeColor=inherit;" vertex="1" parent="YDc8JTq9BG1FTdDbgutB-52">
          <mxGeometry y="52" width="200" height="8" as="geometry" />
        </mxCell>
        <mxCell id="YDc8JTq9BG1FTdDbgutB-55" value="+ addScore(score : Score) : void&lt;div&gt;+ getHighScore() : int&lt;/div&gt;" style="text;strokeColor=none;fillColor=none;align=left;verticalAlign=top;spacingLeft=4;spacingRight=4;overflow=hidden;rotatable=0;points=[[0,0.5],[1,0.5]];portConstraint=eastwest;whiteSpace=wrap;html=1;" vertex="1" parent="YDc8JTq9BG1FTdDbgutB-52">
          <mxGeometry y="60" width="200" height="80" as="geometry" />
        </mxCell>
        <mxCell id="YDc8JTq9BG1FTdDbgutB-56" value="C &lt;span style=&quot;font-weight: normal;&quot;&gt;SquareShape&lt;/span&gt;" style="swimlane;fontStyle=1;align=center;verticalAlign=top;childLayout=stackLayout;horizontal=1;startSize=26;horizontalStack=0;resizeParent=1;resizeParentMax=0;resizeLast=0;collapsible=1;marginBottom=0;whiteSpace=wrap;html=1;" vertex="1" parent="1">
          <mxGeometry x="1400" y="251" width="160" height="110" as="geometry" />
        </mxCell>
        <mxCell id="YDc8JTq9BG1FTdDbgutB-58" value="" style="line;strokeWidth=1;fillColor=none;align=left;verticalAlign=middle;spacingTop=-1;spacingLeft=3;spacingRight=3;rotatable=0;labelPosition=right;points=[];portConstraint=eastwest;strokeColor=inherit;" vertex="1" parent="YDc8JTq9BG1FTdDbgutB-56">
          <mxGeometry y="26" width="160" height="8" as="geometry" />
        </mxCell>
        <mxCell id="YDc8JTq9BG1FTdDbgutB-59" value="+ rotate() : void&lt;div&gt;+ moveDown() : void&lt;/div&gt;&lt;div&gt;+ moveLeft() : void&lt;/div&gt;&lt;div&gt;+ moveRight() : void&lt;/div&gt;" style="text;strokeColor=none;fillColor=none;align=left;verticalAlign=top;spacingLeft=4;spacingRight=4;overflow=hidden;rotatable=0;points=[[0,0.5],[1,0.5]];portConstraint=eastwest;whiteSpace=wrap;html=1;" vertex="1" parent="YDc8JTq9BG1FTdDbgutB-56">
          <mxGeometry y="34" width="160" height="76" as="geometry" />
        </mxCell>
        <mxCell id="YDc8JTq9BG1FTdDbgutB-60" value="C &lt;span style=&quot;font-weight: normal;&quot;&gt;TShape&lt;/span&gt;" style="swimlane;fontStyle=1;align=center;verticalAlign=top;childLayout=stackLayout;horizontal=1;startSize=26;horizontalStack=0;resizeParent=1;resizeParentMax=0;resizeLast=0;collapsible=1;marginBottom=0;whiteSpace=wrap;html=1;" vertex="1" parent="1">
          <mxGeometry x="1660" y="251" width="160" height="110" as="geometry" />
        </mxCell>
        <mxCell id="YDc8JTq9BG1FTdDbgutB-62" value="" style="line;strokeWidth=1;fillColor=none;align=left;verticalAlign=middle;spacingTop=-1;spacingLeft=3;spacingRight=3;rotatable=0;labelPosition=right;points=[];portConstraint=eastwest;strokeColor=inherit;" vertex="1" parent="YDc8JTq9BG1FTdDbgutB-60">
          <mxGeometry y="26" width="160" height="8" as="geometry" />
        </mxCell>
        <mxCell id="YDc8JTq9BG1FTdDbgutB-63" value="+ rotate() : void&lt;div&gt;+ moveDown() : void&lt;/div&gt;&lt;div&gt;+ moveLeft() : void&lt;/div&gt;&lt;div&gt;+ moveRight() : void&lt;/div&gt;" style="text;strokeColor=none;fillColor=none;align=left;verticalAlign=top;spacingLeft=4;spacingRight=4;overflow=hidden;rotatable=0;points=[[0,0.5],[1,0.5]];portConstraint=eastwest;whiteSpace=wrap;html=1;" vertex="1" parent="YDc8JTq9BG1FTdDbgutB-60">
          <mxGeometry y="34" width="160" height="76" as="geometry" />
        </mxCell>
        <mxCell id="YDc8JTq9BG1FTdDbgutB-64" value="C &lt;span style=&quot;font-weight: normal;&quot;&gt;ZShape&lt;/span&gt;" style="swimlane;fontStyle=1;align=center;verticalAlign=top;childLayout=stackLayout;horizontal=1;startSize=26;horizontalStack=0;resizeParent=1;resizeParentMax=0;resizeLast=0;collapsible=1;marginBottom=0;whiteSpace=wrap;html=1;" vertex="1" parent="1">
          <mxGeometry x="1910" y="250" width="160" height="110" as="geometry" />
        </mxCell>
        <mxCell id="YDc8JTq9BG1FTdDbgutB-66" value="" style="line;strokeWidth=1;fillColor=none;align=left;verticalAlign=middle;spacingTop=-1;spacingLeft=3;spacingRight=3;rotatable=0;labelPosition=right;points=[];portConstraint=eastwest;strokeColor=inherit;" vertex="1" parent="YDc8JTq9BG1FTdDbgutB-64">
          <mxGeometry y="26" width="160" height="8" as="geometry" />
        </mxCell>
        <mxCell id="YDc8JTq9BG1FTdDbgutB-67" value="+ rotate() : void&lt;div&gt;+ moveDown() : void&lt;/div&gt;&lt;div&gt;+ moveLeft() : void&lt;/div&gt;&lt;div&gt;+ moveRight() : void&lt;/div&gt;" style="text;strokeColor=none;fillColor=none;align=left;verticalAlign=top;spacingLeft=4;spacingRight=4;overflow=hidden;rotatable=0;points=[[0,0.5],[1,0.5]];portConstraint=eastwest;whiteSpace=wrap;html=1;" vertex="1" parent="YDc8JTq9BG1FTdDbgutB-64">
          <mxGeometry y="34" width="160" height="76" as="geometry" />
        </mxCell>
        <mxCell id="YDc8JTq9BG1FTdDbgutB-68" value="C &lt;span style=&quot;font-weight: normal;&quot;&gt;SShape&lt;/span&gt;" style="swimlane;fontStyle=1;align=center;verticalAlign=top;childLayout=stackLayout;horizontal=1;startSize=26;horizontalStack=0;resizeParent=1;resizeParentMax=0;resizeLast=0;collapsible=1;marginBottom=0;whiteSpace=wrap;html=1;" vertex="1" parent="1">
          <mxGeometry x="2120" y="251" width="160" height="110" as="geometry" />
        </mxCell>
        <mxCell id="YDc8JTq9BG1FTdDbgutB-69" value="" style="line;strokeWidth=1;fillColor=none;align=left;verticalAlign=middle;spacingTop=-1;spacingLeft=3;spacingRight=3;rotatable=0;labelPosition=right;points=[];portConstraint=eastwest;strokeColor=inherit;" vertex="1" parent="YDc8JTq9BG1FTdDbgutB-68">
          <mxGeometry y="26" width="160" height="8" as="geometry" />
        </mxCell>
        <mxCell id="YDc8JTq9BG1FTdDbgutB-70" value="+ rotate() : void&lt;div&gt;+ moveDown() : void&lt;/div&gt;&lt;div&gt;+ moveLeft() : void&lt;/div&gt;&lt;div&gt;+ moveRight() : void&lt;/div&gt;" style="text;strokeColor=none;fillColor=none;align=left;verticalAlign=top;spacingLeft=4;spacingRight=4;overflow=hidden;rotatable=0;points=[[0,0.5],[1,0.5]];portConstraint=eastwest;whiteSpace=wrap;html=1;" vertex="1" parent="YDc8JTq9BG1FTdDbgutB-68">
          <mxGeometry y="34" width="160" height="76" as="geometry" />
        </mxCell>
        <mxCell id="YDc8JTq9BG1FTdDbgutB-71" value="C &lt;span style=&quot;font-weight: normal;&quot;&gt;LShape&lt;/span&gt;" style="swimlane;fontStyle=1;align=center;verticalAlign=top;childLayout=stackLayout;horizontal=1;startSize=26;horizontalStack=0;resizeParent=1;resizeParentMax=0;resizeLast=0;collapsible=1;marginBottom=0;whiteSpace=wrap;html=1;" vertex="1" parent="1">
          <mxGeometry x="2338" y="250" width="160" height="110" as="geometry" />
        </mxCell>
        <mxCell id="YDc8JTq9BG1FTdDbgutB-72" value="" style="line;strokeWidth=1;fillColor=none;align=left;verticalAlign=middle;spacingTop=-1;spacingLeft=3;spacingRight=3;rotatable=0;labelPosition=right;points=[];portConstraint=eastwest;strokeColor=inherit;" vertex="1" parent="YDc8JTq9BG1FTdDbgutB-71">
          <mxGeometry y="26" width="160" height="8" as="geometry" />
        </mxCell>
        <mxCell id="YDc8JTq9BG1FTdDbgutB-73" value="+ rotate() : void&lt;div&gt;+ moveDown() : void&lt;/div&gt;&lt;div&gt;+ moveLeft() : void&lt;/div&gt;&lt;div&gt;+ moveRight() : void&lt;/div&gt;" style="text;strokeColor=none;fillColor=none;align=left;verticalAlign=top;spacingLeft=4;spacingRight=4;overflow=hidden;rotatable=0;points=[[0,0.5],[1,0.5]];portConstraint=eastwest;whiteSpace=wrap;html=1;" vertex="1" parent="YDc8JTq9BG1FTdDbgutB-71">
          <mxGeometry y="34" width="160" height="76" as="geometry" />
        </mxCell>
        <mxCell id="YDc8JTq9BG1FTdDbgutB-74" value="C &lt;span style=&quot;font-weight: normal;&quot;&gt;JShape&lt;/span&gt;" style="swimlane;fontStyle=1;align=center;verticalAlign=top;childLayout=stackLayout;horizontal=1;startSize=26;horizontalStack=0;resizeParent=1;resizeParentMax=0;resizeLast=0;collapsible=1;marginBottom=0;whiteSpace=wrap;html=1;" vertex="1" parent="1">
          <mxGeometry x="2560" y="250" width="160" height="110" as="geometry" />
        </mxCell>
        <mxCell id="YDc8JTq9BG1FTdDbgutB-75" value="" style="line;strokeWidth=1;fillColor=none;align=left;verticalAlign=middle;spacingTop=-1;spacingLeft=3;spacingRight=3;rotatable=0;labelPosition=right;points=[];portConstraint=eastwest;strokeColor=inherit;" vertex="1" parent="YDc8JTq9BG1FTdDbgutB-74">
          <mxGeometry y="26" width="160" height="8" as="geometry" />
        </mxCell>
        <mxCell id="YDc8JTq9BG1FTdDbgutB-76" value="+ rotate() : void&lt;div&gt;+ moveDown() : void&lt;/div&gt;&lt;div&gt;+ moveLeft() : void&lt;/div&gt;&lt;div&gt;+ moveRight() : void&lt;/div&gt;" style="text;strokeColor=none;fillColor=none;align=left;verticalAlign=top;spacingLeft=4;spacingRight=4;overflow=hidden;rotatable=0;points=[[0,0.5],[1,0.5]];portConstraint=eastwest;whiteSpace=wrap;html=1;" vertex="1" parent="YDc8JTq9BG1FTdDbgutB-74">
          <mxGeometry y="34" width="160" height="76" as="geometry" />
        </mxCell>
        <mxCell id="YDc8JTq9BG1FTdDbgutB-77" value="A &lt;span style=&quot;font-weight: normal;&quot;&gt;Shape&lt;/span&gt;" style="swimlane;fontStyle=1;align=center;verticalAlign=top;childLayout=stackLayout;horizontal=1;startSize=26;horizontalStack=0;resizeParent=1;resizeParentMax=0;resizeLast=0;collapsible=1;marginBottom=0;whiteSpace=wrap;html=1;" vertex="1" parent="1">
          <mxGeometry x="1754" y="410" width="160" height="160" as="geometry" />
        </mxCell>
        <mxCell id="YDc8JTq9BG1FTdDbgutB-78" value="+ x : int&lt;div&gt;+ y : int&lt;/div&gt;&lt;div&gt;+ z : int&lt;/div&gt;" style="text;strokeColor=none;fillColor=none;align=left;verticalAlign=top;spacingLeft=4;spacingRight=4;overflow=hidden;rotatable=0;points=[[0,0.5],[1,0.5]];portConstraint=eastwest;whiteSpace=wrap;html=1;" vertex="1" parent="YDc8JTq9BG1FTdDbgutB-77">
          <mxGeometry y="26" width="160" height="54" as="geometry" />
        </mxCell>
        <mxCell id="YDc8JTq9BG1FTdDbgutB-79" value="" style="line;strokeWidth=1;fillColor=none;align=left;verticalAlign=middle;spacingTop=-1;spacingLeft=3;spacingRight=3;rotatable=0;labelPosition=right;points=[];portConstraint=eastwest;strokeColor=inherit;" vertex="1" parent="YDc8JTq9BG1FTdDbgutB-77">
          <mxGeometry y="80" width="160" height="8" as="geometry" />
        </mxCell>
        <mxCell id="YDc8JTq9BG1FTdDbgutB-80" value="+ rotate() : void&lt;div&gt;+ moveDown() : void&lt;/div&gt;&lt;div&gt;+ moveLeft() : void&lt;/div&gt;&lt;div&gt;+ moveRight() : void&lt;/div&gt;" style="text;strokeColor=none;fillColor=none;align=left;verticalAlign=top;spacingLeft=4;spacingRight=4;overflow=hidden;rotatable=0;points=[[0,0.5],[1,0.5]];portConstraint=eastwest;whiteSpace=wrap;html=1;" vertex="1" parent="YDc8JTq9BG1FTdDbgutB-77">
          <mxGeometry y="88" width="160" height="72" as="geometry" />
        </mxCell>
        <mxCell id="YDc8JTq9BG1FTdDbgutB-82" value="I &lt;span style=&quot;font-weight: normal;&quot;&gt;ShapeFactory&lt;/span&gt;" style="swimlane;fontStyle=1;align=center;verticalAlign=top;childLayout=stackLayout;horizontal=1;startSize=26;horizontalStack=0;resizeParent=1;resizeParentMax=0;resizeLast=0;collapsible=1;marginBottom=0;whiteSpace=wrap;html=1;" vertex="1" parent="1">
          <mxGeometry x="60" y="350" width="160" height="60" as="geometry" />
        </mxCell>
        <mxCell id="YDc8JTq9BG1FTdDbgutB-84" value="" style="line;strokeWidth=1;fillColor=none;align=left;verticalAlign=middle;spacingTop=-1;spacingLeft=3;spacingRight=3;rotatable=0;labelPosition=right;points=[];portConstraint=eastwest;strokeColor=inherit;" vertex="1" parent="YDc8JTq9BG1FTdDbgutB-82">
          <mxGeometry y="26" width="160" height="8" as="geometry" />
        </mxCell>
        <mxCell id="YDc8JTq9BG1FTdDbgutB-85" value="+ reateShape() : Shape" style="text;strokeColor=none;fillColor=none;align=left;verticalAlign=top;spacingLeft=4;spacingRight=4;overflow=hidden;rotatable=0;points=[[0,0.5],[1,0.5]];portConstraint=eastwest;whiteSpace=wrap;html=1;" vertex="1" parent="YDc8JTq9BG1FTdDbgutB-82">
          <mxGeometry y="34" width="160" height="26" as="geometry" />
        </mxCell>
        <mxCell id="YDc8JTq9BG1FTdDbgutB-86" value="C &lt;span style=&quot;font-weight: 400;&quot;&gt;Cell&lt;/span&gt;" style="swimlane;fontStyle=1;align=center;verticalAlign=top;childLayout=stackLayout;horizontal=1;startSize=26;horizontalStack=0;resizeParent=1;resizeParentMax=0;resizeLast=0;collapsible=1;marginBottom=0;whiteSpace=wrap;html=1;" vertex="1" parent="1">
          <mxGeometry x="290" y="470" width="160" height="68" as="geometry" />
        </mxCell>
        <mxCell id="YDc8JTq9BG1FTdDbgutB-87" value="+ isFilled : boolean&lt;div&gt;+ color : Color&lt;/div&gt;" style="text;strokeColor=none;fillColor=none;align=left;verticalAlign=top;spacingLeft=4;spacingRight=4;overflow=hidden;rotatable=0;points=[[0,0.5],[1,0.5]];portConstraint=eastwest;whiteSpace=wrap;html=1;" vertex="1" parent="YDc8JTq9BG1FTdDbgutB-86">
          <mxGeometry y="26" width="160" height="34" as="geometry" />
        </mxCell>
        <mxCell id="YDc8JTq9BG1FTdDbgutB-88" value="" style="line;strokeWidth=1;fillColor=none;align=left;verticalAlign=middle;spacingTop=-1;spacingLeft=3;spacingRight=3;rotatable=0;labelPosition=right;points=[];portConstraint=eastwest;strokeColor=inherit;" vertex="1" parent="YDc8JTq9BG1FTdDbgutB-86">
          <mxGeometry y="60" width="160" height="8" as="geometry" />
        </mxCell>
        <mxCell id="YDc8JTq9BG1FTdDbgutB-94" value="1" style="endArrow=none;html=1;endSize=12;startArrow=diamondThin;startSize=14;startFill=0;edgeStyle=orthogonalEdgeStyle;align=left;verticalAlign=bottom;rounded=0;exitX=0;exitY=0.75;exitDx=0;exitDy=0;entryX=0.384;entryY=0.055;entryDx=0;entryDy=0;entryPerimeter=0;endFill=0;" edge="1" parent="1" source="YDc8JTq9BG1FTdDbgutB-31" target="YDc8JTq9BG1FTdDbgutB-36">
          <mxGeometry x="-1" y="3" relative="1" as="geometry">
            <mxPoint x="460" y="210" as="sourcePoint" />
            <mxPoint x="620" y="210" as="targetPoint" />
          </mxGeometry>
        </mxCell>
        <mxCell id="YDc8JTq9BG1FTdDbgutB-97" value="" style="endArrow=block;endFill=0;endSize=12;html=1;rounded=0;exitX=0.989;exitY=0.974;exitDx=0;exitDy=0;exitPerimeter=0;entryX=0.009;entryY=0.099;entryDx=0;entryDy=0;entryPerimeter=0;" edge="1" parent="1" source="YDc8JTq9BG1FTdDbgutB-55" target="YDc8JTq9BG1FTdDbgutB-80">
          <mxGeometry width="160" relative="1" as="geometry">
            <mxPoint x="1500" y="380" as="sourcePoint" />
            <mxPoint x="1660" y="380" as="targetPoint" />
          </mxGeometry>
        </mxCell>
        <mxCell id="YDc8JTq9BG1FTdDbgutB-98" value="" style="endArrow=block;endFill=0;endSize=12;html=1;rounded=0;exitX=0.992;exitY=1.003;exitDx=0;exitDy=0;exitPerimeter=0;entryX=0;entryY=0.5;entryDx=0;entryDy=0;" edge="1" parent="1" source="YDc8JTq9BG1FTdDbgutB-59" target="YDc8JTq9BG1FTdDbgutB-78">
          <mxGeometry width="160" relative="1" as="geometry">
            <mxPoint x="1560" y="390" as="sourcePoint" />
            <mxPoint x="1720" y="390" as="targetPoint" />
          </mxGeometry>
        </mxCell>
        <mxCell id="YDc8JTq9BG1FTdDbgutB-99" value="" style="endArrow=block;endFill=0;endSize=12;html=1;rounded=0;exitX=1;exitY=0.5;exitDx=0;exitDy=0;entryX=0.5;entryY=0;entryDx=0;entryDy=0;" edge="1" parent="1" source="YDc8JTq9BG1FTdDbgutB-63" target="YDc8JTq9BG1FTdDbgutB-77">
          <mxGeometry width="160" relative="1" as="geometry">
            <mxPoint x="1880" y="380" as="sourcePoint" />
            <mxPoint x="2040" y="380" as="targetPoint" />
          </mxGeometry>
        </mxCell>
        <mxCell id="YDc8JTq9BG1FTdDbgutB-100" value="" style="endArrow=block;endFill=0;endSize=12;html=1;rounded=0;exitX=0.46;exitY=1.046;exitDx=0;exitDy=0;exitPerimeter=0;" edge="1" parent="1" source="YDc8JTq9BG1FTdDbgutB-67">
          <mxGeometry width="160" relative="1" as="geometry">
            <mxPoint x="2050" y="410" as="sourcePoint" />
            <mxPoint x="1910" y="410" as="targetPoint" />
          </mxGeometry>
        </mxCell>
        <mxCell id="YDc8JTq9BG1FTdDbgutB-101" value="" style="endArrow=block;endFill=0;endSize=12;html=1;rounded=0;exitX=0.435;exitY=0.993;exitDx=0;exitDy=0;exitPerimeter=0;entryX=1.009;entryY=0.189;entryDx=0;entryDy=0;entryPerimeter=0;" edge="1" parent="1" source="YDc8JTq9BG1FTdDbgutB-70" target="YDc8JTq9BG1FTdDbgutB-78">
          <mxGeometry width="160" relative="1" as="geometry">
            <mxPoint x="2180" y="420" as="sourcePoint" />
            <mxPoint x="2340" y="420" as="targetPoint" />
          </mxGeometry>
        </mxCell>
        <mxCell id="YDc8JTq9BG1FTdDbgutB-102" value="" style="endArrow=block;endFill=0;endSize=12;html=1;rounded=0;exitX=0.244;exitY=0.996;exitDx=0;exitDy=0;exitPerimeter=0;entryX=1.024;entryY=0.099;entryDx=0;entryDy=0;entryPerimeter=0;" edge="1" parent="1" source="YDc8JTq9BG1FTdDbgutB-73" target="YDc8JTq9BG1FTdDbgutB-80">
          <mxGeometry width="160" relative="1" as="geometry">
            <mxPoint x="2230" y="420" as="sourcePoint" />
            <mxPoint x="2390" y="420" as="targetPoint" />
          </mxGeometry>
        </mxCell>
        <mxCell id="YDc8JTq9BG1FTdDbgutB-103" value="" style="endArrow=diamondThin;endFill=1;endSize=24;html=1;rounded=0;entryX=1.02;entryY=0.812;entryDx=0;entryDy=0;entryPerimeter=0;exitX=-0.021;exitY=0.725;exitDx=0;exitDy=0;exitPerimeter=0;" edge="1" parent="1" source="YDc8JTq9BG1FTdDbgutB-80" target="YDc8JTq9BG1FTdDbgutB-43">
          <mxGeometry width="160" relative="1" as="geometry">
            <mxPoint x="830" y="380" as="sourcePoint" />
            <mxPoint x="990" y="380" as="targetPoint" />
          </mxGeometry>
        </mxCell>
        <mxCell id="YDc8JTq9BG1FTdDbgutB-104" value="" style="endArrow=diamondThin;endFill=1;endSize=24;html=1;rounded=0;exitX=0.546;exitY=0.002;exitDx=0;exitDy=0;exitPerimeter=0;entryX=0.75;entryY=1;entryDx=0;entryDy=0;" edge="1" parent="1" source="YDc8JTq9BG1FTdDbgutB-40" target="YDc8JTq9BG1FTdDbgutB-31">
          <mxGeometry width="160" relative="1" as="geometry">
            <mxPoint x="390" y="330" as="sourcePoint" />
            <mxPoint x="550" y="330" as="targetPoint" />
          </mxGeometry>
        </mxCell>
        <mxCell id="YDc8JTq9BG1FTdDbgutB-105" value="" style="endArrow=diamondThin;endFill=1;endSize=24;html=1;rounded=0;entryX=1.002;entryY=0.901;entryDx=0;entryDy=0;entryPerimeter=0;exitX=0.336;exitY=-0.011;exitDx=0;exitDy=0;exitPerimeter=0;" edge="1" parent="1" source="YDc8JTq9BG1FTdDbgutB-44" target="YDc8JTq9BG1FTdDbgutB-31">
          <mxGeometry width="160" relative="1" as="geometry">
            <mxPoint x="390" y="330" as="sourcePoint" />
            <mxPoint x="550" y="330" as="targetPoint" />
          </mxGeometry>
        </mxCell>
        <mxCell id="YDc8JTq9BG1FTdDbgutB-106" value="" style="endArrow=diamondThin;endFill=1;endSize=24;html=1;rounded=0;entryX=1.014;entryY=0.549;entryDx=0;entryDy=0;entryPerimeter=0;exitX=0.299;exitY=0.012;exitDx=0;exitDy=0;exitPerimeter=0;" edge="1" parent="1" source="YDc8JTq9BG1FTdDbgutB-48" target="YDc8JTq9BG1FTdDbgutB-31">
          <mxGeometry width="160" relative="1" as="geometry">
            <mxPoint x="660" y="310" as="sourcePoint" />
            <mxPoint x="820" y="310" as="targetPoint" />
          </mxGeometry>
        </mxCell>
        <mxCell id="YDc8JTq9BG1FTdDbgutB-107" value="" style="endArrow=block;dashed=1;endFill=0;endSize=12;html=1;rounded=0;" edge="1" parent="1">
          <mxGeometry width="160" relative="1" as="geometry">
            <mxPoint x="450" y="300" as="sourcePoint" />
            <mxPoint x="610" y="300" as="targetPoint" />
          </mxGeometry>
        </mxCell>
        <mxCell id="YDc8JTq9BG1FTdDbgutB-108" value="" style="endArrow=block;endFill=0;endSize=12;html=1;rounded=0;exitX=0.441;exitY=1.034;exitDx=0;exitDy=0;exitPerimeter=0;" edge="1" parent="1" source="YDc8JTq9BG1FTdDbgutB-39" target="YDc8JTq9BG1FTdDbgutB-82">
          <mxGeometry width="160" relative="1" as="geometry">
            <mxPoint x="140" y="320" as="sourcePoint" />
            <mxPoint x="300" y="320" as="targetPoint" />
          </mxGeometry>
        </mxCell>
        <mxCell id="YDc8JTq9BG1FTdDbgutB-111" value="" style="endArrow=diamondThin;endFill=0;endSize=24;html=1;rounded=0;exitX=0.5;exitY=0;exitDx=0;exitDy=0;entryX=0.499;entryY=1.014;entryDx=0;entryDy=0;entryPerimeter=0;" edge="1" parent="1" source="YDc8JTq9BG1FTdDbgutB-86" target="YDc8JTq9BG1FTdDbgutB-43">
          <mxGeometry width="160" relative="1" as="geometry">
            <mxPoint x="490" y="460" as="sourcePoint" />
            <mxPoint x="650" y="460" as="targetPoint" />
          </mxGeometry>
        </mxCell>
        <mxCell id="YDc8JTq9BG1FTdDbgutB-112" value="" style="endArrow=block;dashed=1;endFill=0;endSize=12;html=1;rounded=0;exitX=0.481;exitY=1.036;exitDx=0;exitDy=0;exitPerimeter=0;entryX=1.024;entryY=0.772;entryDx=0;entryDy=0;entryPerimeter=0;" edge="1" parent="1" source="YDc8JTq9BG1FTdDbgutB-76" target="YDc8JTq9BG1FTdDbgutB-80">
          <mxGeometry width="160" relative="1" as="geometry">
            <mxPoint x="2480" y="460" as="sourcePoint" />
            <mxPoint x="2640" y="460" as="targetPoint" />
          </mxGeometry>
        </mxCell>
      </root>
    </mxGraphModel>
  </diagram>
</mxfile>
